<mxfile host="app.diagrams.net" agent="Mozilla/5.0 (Windows NT 10.0; Win64; x64) AppleWebKit/537.36 (KHTML, like Gecko) Chrome/132.0.0.0 Safari/537.36" version="26.0.7">
  <diagram id="R2lEEEUBdFMjLlhIrx00" name="Page-1">
    <mxGraphModel dx="1434" dy="744" grid="0" gridSize="10" guides="0" tooltips="1" connect="1" arrows="1" fold="1" page="1" pageScale="1" pageWidth="850" pageHeight="1100" math="0" shadow="0" extFonts="Permanent Marker^https://fonts.googleapis.com/css?family=Permanent+Marker">
      <root>
        <mxCell id="0" />
        <mxCell id="1" parent="0" />
        <mxCell id="bwq9uwPWmGqGHJP2y-rf-1" value="Books" style="shape=table;startSize=30;container=1;collapsible=1;childLayout=tableLayout;fixedRows=1;rowLines=0;fontStyle=1;align=center;resizeLast=1;html=1;fillColor=#dae8fc;strokeColor=#6c8ebf;" parent="1" vertex="1">
          <mxGeometry x="35" y="99" width="276" height="204" as="geometry" />
        </mxCell>
        <mxCell id="bwq9uwPWmGqGHJP2y-rf-2" value="" style="shape=tableRow;horizontal=0;startSize=0;swimlaneHead=0;swimlaneBody=0;fillColor=none;collapsible=0;dropTarget=0;points=[[0,0.5],[1,0.5]];portConstraint=eastwest;top=0;left=0;right=0;bottom=1;" parent="bwq9uwPWmGqGHJP2y-rf-1" vertex="1">
          <mxGeometry y="30" width="276" height="30" as="geometry" />
        </mxCell>
        <mxCell id="bwq9uwPWmGqGHJP2y-rf-3" value="PK" style="shape=partialRectangle;connectable=0;fillColor=#f5f5f5;top=0;left=0;bottom=0;right=0;fontStyle=1;overflow=hidden;whiteSpace=wrap;html=1;fontColor=#333333;strokeColor=#666666;" parent="bwq9uwPWmGqGHJP2y-rf-2" vertex="1">
          <mxGeometry width="57.75" height="30" as="geometry">
            <mxRectangle width="57.75" height="30" as="alternateBounds" />
          </mxGeometry>
        </mxCell>
        <mxCell id="bwq9uwPWmGqGHJP2y-rf-4" value="BOOKID" style="shape=partialRectangle;connectable=0;fillColor=#f5f5f5;top=0;left=0;bottom=0;right=0;align=left;spacingLeft=6;fontStyle=5;overflow=hidden;whiteSpace=wrap;html=1;fontColor=#333333;strokeColor=#666666;" parent="bwq9uwPWmGqGHJP2y-rf-2" vertex="1">
          <mxGeometry x="57.75" width="218.25" height="30" as="geometry">
            <mxRectangle width="218.25" height="30" as="alternateBounds" />
          </mxGeometry>
        </mxCell>
        <mxCell id="bwq9uwPWmGqGHJP2y-rf-5" value="" style="shape=tableRow;horizontal=0;startSize=0;swimlaneHead=0;swimlaneBody=0;fillColor=none;collapsible=0;dropTarget=0;points=[[0,0.5],[1,0.5]];portConstraint=eastwest;top=0;left=0;right=0;bottom=0;" parent="bwq9uwPWmGqGHJP2y-rf-1" vertex="1">
          <mxGeometry y="60" width="276" height="30" as="geometry" />
        </mxCell>
        <mxCell id="bwq9uwPWmGqGHJP2y-rf-6" value="" style="shape=partialRectangle;connectable=0;fillColor=none;top=0;left=0;bottom=0;right=0;editable=1;overflow=hidden;whiteSpace=wrap;html=1;" parent="bwq9uwPWmGqGHJP2y-rf-5" vertex="1">
          <mxGeometry width="57.75" height="30" as="geometry">
            <mxRectangle width="57.75" height="30" as="alternateBounds" />
          </mxGeometry>
        </mxCell>
        <mxCell id="bwq9uwPWmGqGHJP2y-rf-7" value="&lt;b&gt;Title&lt;/b&gt;" style="shape=partialRectangle;connectable=0;fillColor=none;top=0;left=0;bottom=0;right=0;align=left;spacingLeft=6;overflow=hidden;whiteSpace=wrap;html=1;" parent="bwq9uwPWmGqGHJP2y-rf-5" vertex="1">
          <mxGeometry x="57.75" width="218.25" height="30" as="geometry">
            <mxRectangle width="218.25" height="30" as="alternateBounds" />
          </mxGeometry>
        </mxCell>
        <mxCell id="bwq9uwPWmGqGHJP2y-rf-11" value="" style="shape=tableRow;horizontal=0;startSize=0;swimlaneHead=0;swimlaneBody=0;fillColor=none;collapsible=0;dropTarget=0;points=[[0,0.5],[1,0.5]];portConstraint=eastwest;top=0;left=0;right=0;bottom=0;" parent="bwq9uwPWmGqGHJP2y-rf-1" vertex="1">
          <mxGeometry y="90" width="276" height="42" as="geometry" />
        </mxCell>
        <mxCell id="bwq9uwPWmGqGHJP2y-rf-12" value="" style="shape=partialRectangle;connectable=0;fillColor=none;top=0;left=0;bottom=0;right=0;editable=1;overflow=hidden;whiteSpace=wrap;html=1;" parent="bwq9uwPWmGqGHJP2y-rf-11" vertex="1">
          <mxGeometry width="57.75" height="42" as="geometry">
            <mxRectangle width="57.75" height="42" as="alternateBounds" />
          </mxGeometry>
        </mxCell>
        <mxCell id="bwq9uwPWmGqGHJP2y-rf-13" value="&lt;b&gt;Genre&lt;/b&gt;" style="shape=partialRectangle;connectable=0;fillColor=none;top=0;left=0;bottom=0;right=0;align=left;spacingLeft=6;overflow=hidden;whiteSpace=wrap;html=1;" parent="bwq9uwPWmGqGHJP2y-rf-11" vertex="1">
          <mxGeometry x="57.75" width="218.25" height="42" as="geometry">
            <mxRectangle width="218.25" height="42" as="alternateBounds" />
          </mxGeometry>
        </mxCell>
        <mxCell id="bwq9uwPWmGqGHJP2y-rf-8" value="" style="shape=tableRow;horizontal=0;startSize=0;swimlaneHead=0;swimlaneBody=0;fillColor=none;collapsible=0;dropTarget=0;points=[[0,0.5],[1,0.5]];portConstraint=eastwest;top=0;left=0;right=0;bottom=0;" parent="bwq9uwPWmGqGHJP2y-rf-1" vertex="1">
          <mxGeometry y="132" width="276" height="30" as="geometry" />
        </mxCell>
        <mxCell id="bwq9uwPWmGqGHJP2y-rf-9" value="" style="shape=partialRectangle;connectable=0;fillColor=none;top=0;left=0;bottom=0;right=0;editable=1;overflow=hidden;whiteSpace=wrap;html=1;" parent="bwq9uwPWmGqGHJP2y-rf-8" vertex="1">
          <mxGeometry width="57.75" height="30" as="geometry">
            <mxRectangle width="57.75" height="30" as="alternateBounds" />
          </mxGeometry>
        </mxCell>
        <mxCell id="bwq9uwPWmGqGHJP2y-rf-10" value="&lt;b&gt;Publication-Date&lt;/b&gt;" style="shape=partialRectangle;connectable=0;fillColor=none;top=0;left=0;bottom=0;right=0;align=left;spacingLeft=6;overflow=hidden;whiteSpace=wrap;html=1;" parent="bwq9uwPWmGqGHJP2y-rf-8" vertex="1">
          <mxGeometry x="57.75" width="218.25" height="30" as="geometry">
            <mxRectangle width="218.25" height="30" as="alternateBounds" />
          </mxGeometry>
        </mxCell>
        <mxCell id="bwq9uwPWmGqGHJP2y-rf-20" value="" style="shape=tableRow;horizontal=0;startSize=0;swimlaneHead=0;swimlaneBody=0;fillColor=none;collapsible=0;dropTarget=0;points=[[0,0.5],[1,0.5]];portConstraint=eastwest;top=0;left=0;right=0;bottom=0;" parent="bwq9uwPWmGqGHJP2y-rf-1" vertex="1">
          <mxGeometry y="162" width="276" height="42" as="geometry" />
        </mxCell>
        <mxCell id="bwq9uwPWmGqGHJP2y-rf-21" value="" style="shape=partialRectangle;connectable=0;fillColor=none;top=0;left=0;bottom=0;right=0;editable=1;overflow=hidden;whiteSpace=wrap;html=1;" parent="bwq9uwPWmGqGHJP2y-rf-20" vertex="1">
          <mxGeometry width="57.75" height="42" as="geometry">
            <mxRectangle width="57.75" height="42" as="alternateBounds" />
          </mxGeometry>
        </mxCell>
        <mxCell id="bwq9uwPWmGqGHJP2y-rf-22" value="&lt;b&gt;AUTHORID&lt;/b&gt;" style="shape=partialRectangle;connectable=0;fillColor=none;top=0;left=0;bottom=0;right=0;align=left;spacingLeft=6;overflow=hidden;whiteSpace=wrap;html=1;" parent="bwq9uwPWmGqGHJP2y-rf-20" vertex="1">
          <mxGeometry x="57.75" width="218.25" height="42" as="geometry">
            <mxRectangle width="218.25" height="42" as="alternateBounds" />
          </mxGeometry>
        </mxCell>
        <mxCell id="bwq9uwPWmGqGHJP2y-rf-23" value="AUTHOR" style="shape=table;startSize=30;container=1;collapsible=1;childLayout=tableLayout;fixedRows=1;rowLines=0;fontStyle=1;align=center;resizeLast=1;html=1;fillColor=#ffe6cc;strokeColor=#d79b00;" parent="1" vertex="1">
          <mxGeometry x="31" y="395" width="276" height="120" as="geometry" />
        </mxCell>
        <mxCell id="bwq9uwPWmGqGHJP2y-rf-24" value="" style="shape=tableRow;horizontal=0;startSize=0;swimlaneHead=0;swimlaneBody=0;fillColor=none;collapsible=0;dropTarget=0;points=[[0,0.5],[1,0.5]];portConstraint=eastwest;top=0;left=0;right=0;bottom=1;" parent="bwq9uwPWmGqGHJP2y-rf-23" vertex="1">
          <mxGeometry y="30" width="276" height="30" as="geometry" />
        </mxCell>
        <mxCell id="bwq9uwPWmGqGHJP2y-rf-25" value="PK" style="shape=partialRectangle;connectable=0;fillColor=#f5f5f5;top=0;left=0;bottom=0;right=0;fontStyle=1;overflow=hidden;whiteSpace=wrap;html=1;fontColor=#333333;strokeColor=#666666;" parent="bwq9uwPWmGqGHJP2y-rf-24" vertex="1">
          <mxGeometry width="57.75" height="30" as="geometry">
            <mxRectangle width="57.75" height="30" as="alternateBounds" />
          </mxGeometry>
        </mxCell>
        <mxCell id="bwq9uwPWmGqGHJP2y-rf-26" value="&lt;b&gt;AUTHORID&lt;/b&gt;" style="shape=partialRectangle;connectable=0;fillColor=#f5f5f5;top=0;left=0;bottom=0;right=0;align=left;spacingLeft=6;fontStyle=5;overflow=hidden;whiteSpace=wrap;html=1;fontColor=#333333;strokeColor=#666666;" parent="bwq9uwPWmGqGHJP2y-rf-24" vertex="1">
          <mxGeometry x="57.75" width="218.25" height="30" as="geometry">
            <mxRectangle width="218.25" height="30" as="alternateBounds" />
          </mxGeometry>
        </mxCell>
        <mxCell id="bwq9uwPWmGqGHJP2y-rf-27" value="" style="shape=tableRow;horizontal=0;startSize=0;swimlaneHead=0;swimlaneBody=0;fillColor=none;collapsible=0;dropTarget=0;points=[[0,0.5],[1,0.5]];portConstraint=eastwest;top=0;left=0;right=0;bottom=0;" parent="bwq9uwPWmGqGHJP2y-rf-23" vertex="1">
          <mxGeometry y="60" width="276" height="30" as="geometry" />
        </mxCell>
        <mxCell id="bwq9uwPWmGqGHJP2y-rf-28" value="" style="shape=partialRectangle;connectable=0;fillColor=none;top=0;left=0;bottom=0;right=0;editable=1;overflow=hidden;whiteSpace=wrap;html=1;" parent="bwq9uwPWmGqGHJP2y-rf-27" vertex="1">
          <mxGeometry width="57.75" height="30" as="geometry">
            <mxRectangle width="57.75" height="30" as="alternateBounds" />
          </mxGeometry>
        </mxCell>
        <mxCell id="bwq9uwPWmGqGHJP2y-rf-29" value="&lt;b&gt;Name&lt;/b&gt;" style="shape=partialRectangle;connectable=0;fillColor=none;top=0;left=0;bottom=0;right=0;align=left;spacingLeft=6;overflow=hidden;whiteSpace=wrap;html=1;" parent="bwq9uwPWmGqGHJP2y-rf-27" vertex="1">
          <mxGeometry x="57.75" width="218.25" height="30" as="geometry">
            <mxRectangle width="218.25" height="30" as="alternateBounds" />
          </mxGeometry>
        </mxCell>
        <mxCell id="bwq9uwPWmGqGHJP2y-rf-30" value="" style="shape=tableRow;horizontal=0;startSize=0;swimlaneHead=0;swimlaneBody=0;fillColor=none;collapsible=0;dropTarget=0;points=[[0,0.5],[1,0.5]];portConstraint=eastwest;top=0;left=0;right=0;bottom=0;" parent="bwq9uwPWmGqGHJP2y-rf-23" vertex="1">
          <mxGeometry y="90" width="276" height="30" as="geometry" />
        </mxCell>
        <mxCell id="bwq9uwPWmGqGHJP2y-rf-31" value="" style="shape=partialRectangle;connectable=0;fillColor=none;top=0;left=0;bottom=0;right=0;editable=1;overflow=hidden;whiteSpace=wrap;html=1;" parent="bwq9uwPWmGqGHJP2y-rf-30" vertex="1">
          <mxGeometry width="57.75" height="30" as="geometry">
            <mxRectangle width="57.75" height="30" as="alternateBounds" />
          </mxGeometry>
        </mxCell>
        <mxCell id="bwq9uwPWmGqGHJP2y-rf-32" value="&lt;b&gt;Genre-Exp&lt;/b&gt;" style="shape=partialRectangle;connectable=0;fillColor=none;top=0;left=0;bottom=0;right=0;align=left;spacingLeft=6;overflow=hidden;whiteSpace=wrap;html=1;" parent="bwq9uwPWmGqGHJP2y-rf-30" vertex="1">
          <mxGeometry x="57.75" width="218.25" height="30" as="geometry">
            <mxRectangle width="218.25" height="30" as="alternateBounds" />
          </mxGeometry>
        </mxCell>
        <mxCell id="bwq9uwPWmGqGHJP2y-rf-39" value="Customer" style="shape=table;startSize=30;container=1;collapsible=1;childLayout=tableLayout;fixedRows=1;rowLines=0;fontStyle=1;align=center;resizeLast=1;html=1;fillColor=#fff2cc;strokeColor=#d6b656;" parent="1" vertex="1">
          <mxGeometry x="467" y="99" width="276" height="162" as="geometry" />
        </mxCell>
        <mxCell id="bwq9uwPWmGqGHJP2y-rf-40" value="" style="shape=tableRow;horizontal=0;startSize=0;swimlaneHead=0;swimlaneBody=0;fillColor=none;collapsible=0;dropTarget=0;points=[[0,0.5],[1,0.5]];portConstraint=eastwest;top=0;left=0;right=0;bottom=1;" parent="bwq9uwPWmGqGHJP2y-rf-39" vertex="1">
          <mxGeometry y="30" width="276" height="30" as="geometry" />
        </mxCell>
        <mxCell id="bwq9uwPWmGqGHJP2y-rf-41" value="PK" style="shape=partialRectangle;connectable=0;fillColor=#f5f5f5;top=0;left=0;bottom=0;right=0;fontStyle=1;overflow=hidden;whiteSpace=wrap;html=1;fontColor=#333333;strokeColor=#666666;" parent="bwq9uwPWmGqGHJP2y-rf-40" vertex="1">
          <mxGeometry width="57.75" height="30" as="geometry">
            <mxRectangle width="57.75" height="30" as="alternateBounds" />
          </mxGeometry>
        </mxCell>
        <mxCell id="bwq9uwPWmGqGHJP2y-rf-42" value="CUSTOMERID" style="shape=partialRectangle;connectable=0;fillColor=#f5f5f5;top=0;left=0;bottom=0;right=0;align=left;spacingLeft=6;fontStyle=5;overflow=hidden;whiteSpace=wrap;html=1;fontColor=#333333;strokeColor=#666666;" parent="bwq9uwPWmGqGHJP2y-rf-40" vertex="1">
          <mxGeometry x="57.75" width="218.25" height="30" as="geometry">
            <mxRectangle width="218.25" height="30" as="alternateBounds" />
          </mxGeometry>
        </mxCell>
        <mxCell id="bwq9uwPWmGqGHJP2y-rf-43" value="" style="shape=tableRow;horizontal=0;startSize=0;swimlaneHead=0;swimlaneBody=0;fillColor=none;collapsible=0;dropTarget=0;points=[[0,0.5],[1,0.5]];portConstraint=eastwest;top=0;left=0;right=0;bottom=0;" parent="bwq9uwPWmGqGHJP2y-rf-39" vertex="1">
          <mxGeometry y="60" width="276" height="30" as="geometry" />
        </mxCell>
        <mxCell id="bwq9uwPWmGqGHJP2y-rf-44" value="" style="shape=partialRectangle;connectable=0;fillColor=none;top=0;left=0;bottom=0;right=0;editable=1;overflow=hidden;whiteSpace=wrap;html=1;" parent="bwq9uwPWmGqGHJP2y-rf-43" vertex="1">
          <mxGeometry width="57.75" height="30" as="geometry">
            <mxRectangle width="57.75" height="30" as="alternateBounds" />
          </mxGeometry>
        </mxCell>
        <mxCell id="bwq9uwPWmGqGHJP2y-rf-45" value="&lt;b&gt;Name&lt;/b&gt;" style="shape=partialRectangle;connectable=0;fillColor=none;top=0;left=0;bottom=0;right=0;align=left;spacingLeft=6;overflow=hidden;whiteSpace=wrap;html=1;" parent="bwq9uwPWmGqGHJP2y-rf-43" vertex="1">
          <mxGeometry x="57.75" width="218.25" height="30" as="geometry">
            <mxRectangle width="218.25" height="30" as="alternateBounds" />
          </mxGeometry>
        </mxCell>
        <mxCell id="bwq9uwPWmGqGHJP2y-rf-49" value="" style="shape=tableRow;horizontal=0;startSize=0;swimlaneHead=0;swimlaneBody=0;fillColor=none;collapsible=0;dropTarget=0;points=[[0,0.5],[1,0.5]];portConstraint=eastwest;top=0;left=0;right=0;bottom=0;" parent="bwq9uwPWmGqGHJP2y-rf-39" vertex="1">
          <mxGeometry y="90" width="276" height="42" as="geometry" />
        </mxCell>
        <mxCell id="bwq9uwPWmGqGHJP2y-rf-50" value="" style="shape=partialRectangle;connectable=0;fillColor=none;top=0;left=0;bottom=0;right=0;editable=1;overflow=hidden;whiteSpace=wrap;html=1;" parent="bwq9uwPWmGqGHJP2y-rf-49" vertex="1">
          <mxGeometry width="57.75" height="42" as="geometry">
            <mxRectangle width="57.75" height="42" as="alternateBounds" />
          </mxGeometry>
        </mxCell>
        <mxCell id="bwq9uwPWmGqGHJP2y-rf-51" value="&lt;b&gt;Contact-No&lt;/b&gt;" style="shape=partialRectangle;connectable=0;fillColor=none;top=0;left=0;bottom=0;right=0;align=left;spacingLeft=6;overflow=hidden;whiteSpace=wrap;html=1;" parent="bwq9uwPWmGqGHJP2y-rf-49" vertex="1">
          <mxGeometry x="57.75" width="218.25" height="42" as="geometry">
            <mxRectangle width="218.25" height="42" as="alternateBounds" />
          </mxGeometry>
        </mxCell>
        <mxCell id="bwq9uwPWmGqGHJP2y-rf-46" value="" style="shape=tableRow;horizontal=0;startSize=0;swimlaneHead=0;swimlaneBody=0;fillColor=none;collapsible=0;dropTarget=0;points=[[0,0.5],[1,0.5]];portConstraint=eastwest;top=0;left=0;right=0;bottom=0;" parent="bwq9uwPWmGqGHJP2y-rf-39" vertex="1">
          <mxGeometry y="132" width="276" height="30" as="geometry" />
        </mxCell>
        <mxCell id="bwq9uwPWmGqGHJP2y-rf-47" value="" style="shape=partialRectangle;connectable=0;fillColor=none;top=0;left=0;bottom=0;right=0;editable=1;overflow=hidden;whiteSpace=wrap;html=1;" parent="bwq9uwPWmGqGHJP2y-rf-46" vertex="1">
          <mxGeometry width="57.75" height="30" as="geometry">
            <mxRectangle width="57.75" height="30" as="alternateBounds" />
          </mxGeometry>
        </mxCell>
        <mxCell id="bwq9uwPWmGqGHJP2y-rf-48" value="&lt;b&gt;Email&lt;/b&gt;" style="shape=partialRectangle;connectable=0;fillColor=none;top=0;left=0;bottom=0;right=0;align=left;spacingLeft=6;overflow=hidden;whiteSpace=wrap;html=1;" parent="bwq9uwPWmGqGHJP2y-rf-46" vertex="1">
          <mxGeometry x="57.75" width="218.25" height="30" as="geometry">
            <mxRectangle width="218.25" height="30" as="alternateBounds" />
          </mxGeometry>
        </mxCell>
        <mxCell id="bwq9uwPWmGqGHJP2y-rf-55" value="Transaction" style="shape=table;startSize=30;container=1;collapsible=1;childLayout=tableLayout;fixedRows=1;rowLines=0;fontStyle=1;align=center;resizeLast=1;html=1;fillColor=#e1d5e7;strokeColor=#9673a6;" parent="1" vertex="1">
          <mxGeometry x="467" y="395" width="276" height="204" as="geometry" />
        </mxCell>
        <mxCell id="bwq9uwPWmGqGHJP2y-rf-56" value="" style="shape=tableRow;horizontal=0;startSize=0;swimlaneHead=0;swimlaneBody=0;fillColor=none;collapsible=0;dropTarget=0;points=[[0,0.5],[1,0.5]];portConstraint=eastwest;top=0;left=0;right=0;bottom=1;" parent="bwq9uwPWmGqGHJP2y-rf-55" vertex="1">
          <mxGeometry y="30" width="276" height="30" as="geometry" />
        </mxCell>
        <mxCell id="bwq9uwPWmGqGHJP2y-rf-57" value="PK" style="shape=partialRectangle;connectable=0;fillColor=#f5f5f5;top=0;left=0;bottom=0;right=0;fontStyle=1;overflow=hidden;whiteSpace=wrap;html=1;fontColor=#333333;strokeColor=#666666;" parent="bwq9uwPWmGqGHJP2y-rf-56" vertex="1">
          <mxGeometry width="57.75" height="30" as="geometry">
            <mxRectangle width="57.75" height="30" as="alternateBounds" />
          </mxGeometry>
        </mxCell>
        <mxCell id="bwq9uwPWmGqGHJP2y-rf-58" value="TRANSACTIONID" style="shape=partialRectangle;connectable=0;fillColor=#f5f5f5;top=0;left=0;bottom=0;right=0;align=left;spacingLeft=6;fontStyle=5;overflow=hidden;whiteSpace=wrap;html=1;fontColor=#333333;strokeColor=#666666;" parent="bwq9uwPWmGqGHJP2y-rf-56" vertex="1">
          <mxGeometry x="57.75" width="218.25" height="30" as="geometry">
            <mxRectangle width="218.25" height="30" as="alternateBounds" />
          </mxGeometry>
        </mxCell>
        <mxCell id="bwq9uwPWmGqGHJP2y-rf-59" value="" style="shape=tableRow;horizontal=0;startSize=0;swimlaneHead=0;swimlaneBody=0;fillColor=none;collapsible=0;dropTarget=0;points=[[0,0.5],[1,0.5]];portConstraint=eastwest;top=0;left=0;right=0;bottom=0;" parent="bwq9uwPWmGqGHJP2y-rf-55" vertex="1">
          <mxGeometry y="60" width="276" height="30" as="geometry" />
        </mxCell>
        <mxCell id="bwq9uwPWmGqGHJP2y-rf-60" value="" style="shape=partialRectangle;connectable=0;fillColor=none;top=0;left=0;bottom=0;right=0;editable=1;overflow=hidden;whiteSpace=wrap;html=1;" parent="bwq9uwPWmGqGHJP2y-rf-59" vertex="1">
          <mxGeometry width="57.75" height="30" as="geometry">
            <mxRectangle width="57.75" height="30" as="alternateBounds" />
          </mxGeometry>
        </mxCell>
        <mxCell id="bwq9uwPWmGqGHJP2y-rf-61" value="&lt;b&gt;BOOKID&lt;/b&gt;" style="shape=partialRectangle;connectable=0;fillColor=none;top=0;left=0;bottom=0;right=0;align=left;spacingLeft=6;overflow=hidden;whiteSpace=wrap;html=1;" parent="bwq9uwPWmGqGHJP2y-rf-59" vertex="1">
          <mxGeometry x="57.75" width="218.25" height="30" as="geometry">
            <mxRectangle width="218.25" height="30" as="alternateBounds" />
          </mxGeometry>
        </mxCell>
        <mxCell id="bwq9uwPWmGqGHJP2y-rf-62" value="" style="shape=tableRow;horizontal=0;startSize=0;swimlaneHead=0;swimlaneBody=0;fillColor=none;collapsible=0;dropTarget=0;points=[[0,0.5],[1,0.5]];portConstraint=eastwest;top=0;left=0;right=0;bottom=0;" parent="bwq9uwPWmGqGHJP2y-rf-55" vertex="1">
          <mxGeometry y="90" width="276" height="30" as="geometry" />
        </mxCell>
        <mxCell id="bwq9uwPWmGqGHJP2y-rf-63" value="" style="shape=partialRectangle;connectable=0;fillColor=none;top=0;left=0;bottom=0;right=0;editable=1;overflow=hidden;whiteSpace=wrap;html=1;" parent="bwq9uwPWmGqGHJP2y-rf-62" vertex="1">
          <mxGeometry width="57.75" height="30" as="geometry">
            <mxRectangle width="57.75" height="30" as="alternateBounds" />
          </mxGeometry>
        </mxCell>
        <mxCell id="bwq9uwPWmGqGHJP2y-rf-64" value="&lt;b&gt;CUSTOMERID&lt;/b&gt;" style="shape=partialRectangle;connectable=0;fillColor=none;top=0;left=0;bottom=0;right=0;align=left;spacingLeft=6;overflow=hidden;whiteSpace=wrap;html=1;" parent="bwq9uwPWmGqGHJP2y-rf-62" vertex="1">
          <mxGeometry x="57.75" width="218.25" height="30" as="geometry">
            <mxRectangle width="218.25" height="30" as="alternateBounds" />
          </mxGeometry>
        </mxCell>
        <mxCell id="bwq9uwPWmGqGHJP2y-rf-65" value="" style="shape=tableRow;horizontal=0;startSize=0;swimlaneHead=0;swimlaneBody=0;fillColor=none;collapsible=0;dropTarget=0;points=[[0,0.5],[1,0.5]];portConstraint=eastwest;top=0;left=0;right=0;bottom=0;" parent="bwq9uwPWmGqGHJP2y-rf-55" vertex="1">
          <mxGeometry y="120" width="276" height="42" as="geometry" />
        </mxCell>
        <mxCell id="bwq9uwPWmGqGHJP2y-rf-66" value="" style="shape=partialRectangle;connectable=0;fillColor=none;top=0;left=0;bottom=0;right=0;editable=1;overflow=hidden;whiteSpace=wrap;html=1;" parent="bwq9uwPWmGqGHJP2y-rf-65" vertex="1">
          <mxGeometry width="57.75" height="42" as="geometry">
            <mxRectangle width="57.75" height="42" as="alternateBounds" />
          </mxGeometry>
        </mxCell>
        <mxCell id="bwq9uwPWmGqGHJP2y-rf-67" value="&lt;b&gt;Issued-Date&lt;/b&gt;" style="shape=partialRectangle;connectable=0;fillColor=none;top=0;left=0;bottom=0;right=0;align=left;spacingLeft=6;overflow=hidden;whiteSpace=wrap;html=1;" parent="bwq9uwPWmGqGHJP2y-rf-65" vertex="1">
          <mxGeometry x="57.75" width="218.25" height="42" as="geometry">
            <mxRectangle width="218.25" height="42" as="alternateBounds" />
          </mxGeometry>
        </mxCell>
        <mxCell id="bwq9uwPWmGqGHJP2y-rf-68" value="" style="shape=tableRow;horizontal=0;startSize=0;swimlaneHead=0;swimlaneBody=0;fillColor=none;collapsible=0;dropTarget=0;points=[[0,0.5],[1,0.5]];portConstraint=eastwest;top=0;left=0;right=0;bottom=0;" parent="bwq9uwPWmGqGHJP2y-rf-55" vertex="1">
          <mxGeometry y="162" width="276" height="42" as="geometry" />
        </mxCell>
        <mxCell id="bwq9uwPWmGqGHJP2y-rf-69" value="" style="shape=partialRectangle;connectable=0;fillColor=none;top=0;left=0;bottom=0;right=0;editable=1;overflow=hidden;whiteSpace=wrap;html=1;" parent="bwq9uwPWmGqGHJP2y-rf-68" vertex="1">
          <mxGeometry width="57.75" height="42" as="geometry">
            <mxRectangle width="57.75" height="42" as="alternateBounds" />
          </mxGeometry>
        </mxCell>
        <mxCell id="bwq9uwPWmGqGHJP2y-rf-70" value="&lt;b&gt;Return-Date&lt;/b&gt;" style="shape=partialRectangle;connectable=0;fillColor=none;top=0;left=0;bottom=0;right=0;align=left;spacingLeft=6;overflow=hidden;whiteSpace=wrap;html=1;" parent="bwq9uwPWmGqGHJP2y-rf-68" vertex="1">
          <mxGeometry x="57.75" width="218.25" height="42" as="geometry">
            <mxRectangle width="218.25" height="42" as="alternateBounds" />
          </mxGeometry>
        </mxCell>
        <mxCell id="bwq9uwPWmGqGHJP2y-rf-82" value="&lt;b&gt;[ PK - Primary Key ]&lt;/b&gt;" style="text;html=1;align=center;verticalAlign=middle;whiteSpace=wrap;rounded=0;fillColor=#f8cecc;strokeColor=#b85450;" parent="1" vertex="1">
          <mxGeometry x="42" y="33" width="230" height="30" as="geometry" />
        </mxCell>
        <mxCell id="bwq9uwPWmGqGHJP2y-rf-86" value="" style="edgeStyle=entityRelationEdgeStyle;fontSize=12;html=1;endArrow=ERmany;startArrow=ERmany;rounded=0;exitX=1;exitY=0.5;exitDx=0;exitDy=0;entryX=0;entryY=0.5;entryDx=0;entryDy=0;" parent="1" source="bwq9uwPWmGqGHJP2y-rf-2" target="bwq9uwPWmGqGHJP2y-rf-59" edge="1">
          <mxGeometry width="100" height="100" relative="1" as="geometry">
            <mxPoint x="336" y="179" as="sourcePoint" />
            <mxPoint x="393" y="304" as="targetPoint" />
          </mxGeometry>
        </mxCell>
        <mxCell id="bwq9uwPWmGqGHJP2y-rf-87" value="" style="edgeStyle=entityRelationEdgeStyle;fontSize=12;html=1;endArrow=ERmany;startArrow=ERmany;rounded=0;exitX=1;exitY=0.5;exitDx=0;exitDy=0;entryX=1;entryY=0.5;entryDx=0;entryDy=0;" parent="1" source="bwq9uwPWmGqGHJP2y-rf-40" target="bwq9uwPWmGqGHJP2y-rf-62" edge="1">
          <mxGeometry width="100" height="100" relative="1" as="geometry">
            <mxPoint x="557" y="315" as="sourcePoint" />
            <mxPoint x="813" y="486" as="targetPoint" />
          </mxGeometry>
        </mxCell>
        <mxCell id="bwq9uwPWmGqGHJP2y-rf-88" value="" style="fontSize=12;html=1;endArrow=ERmandOne;startArrow=ERmandOne;rounded=0;exitX=1;exitY=0.5;exitDx=0;exitDy=0;endSize=4;edgeStyle=orthogonalEdgeStyle;entryX=0.993;entryY=0.5;entryDx=0;entryDy=0;entryPerimeter=0;" parent="1" source="bwq9uwPWmGqGHJP2y-rf-24" target="bwq9uwPWmGqGHJP2y-rf-20" edge="1">
          <mxGeometry width="100" height="100" relative="1" as="geometry">
            <mxPoint x="386" y="533" as="sourcePoint" />
            <mxPoint x="411" y="139" as="targetPoint" />
            <Array as="points">
              <mxPoint x="343" y="440" />
              <mxPoint x="343" y="282" />
            </Array>
          </mxGeometry>
        </mxCell>
        <mxCell id="_l4nf_JGyXh-0oA1Qkjv-1" value="Name: Himanshu Baliyan,&lt;div&gt;Github:&amp;nbsp;&lt;a href=&quot;https://github.com/himanshubaliyan7/agenixai-traning/tree/main/learning_modules/week-1-SQL&quot;&gt;himanshubaliyan7&lt;/a&gt;&lt;/div&gt;" style="text;html=1;align=center;verticalAlign=middle;whiteSpace=wrap;rounded=0;fillColor=#f5f5f5;fontColor=#333333;strokeColor=#666666;" vertex="1" parent="1">
          <mxGeometry x="37" y="588" width="215" height="90" as="geometry" />
        </mxCell>
      </root>
    </mxGraphModel>
  </diagram>
</mxfile>
